<svg viewBox="0 0 142 24" fill="none" xmlns="http://www.w3.org/2000/svg">
<path d="M24.1317 12.014C24.1692 11.9398 24.2066 11.8656 24.3189 11.8285C25.2922 11.6429 25.8163 10.975 26.228 10.1586C27.3885 7.96922 28.5115 5.77984 29.6719 3.59045C29.9714 3.03382 30.0837 2.4772 29.934 1.88347C29.7094 0.918651 28.9233 0.139377 27.9874 0.0280526C26.9018 -0.120381 25.9286 0.324919 25.4419 1.25263C24.1692 3.62756 22.9339 5.96538 21.6611 8.37742C21.3242 9.04537 21.2868 9.71331 21.5863 10.4184C21.6237 10.5297 21.6237 10.6039 21.5863 10.7523C21.2493 11.3832 20.9124 12.014 20.613 12.6078C20.5381 12.7562 20.4632 12.7562 20.3135 12.682C19.9017 12.4593 19.49 12.2738 19.0408 12.0511C18.5541 11.8285 18.367 11.9027 18.1049 12.348C17.2814 13.8323 16.4578 15.3538 15.5594 16.801C14.9231 17.84 14.399 18.9162 14.399 20.1779C14.0246 20.0294 13.6503 19.9181 13.276 19.9181C13.1262 19.9181 13.0514 19.8439 12.9765 19.7326C12.677 18.9533 12.1155 18.5451 11.292 18.4338C11.1048 18.4338 11.1048 18.3595 11.1048 18.2111C11.1048 17.0236 11.1048 15.8362 11.1048 14.6487C11.1048 14.5003 11.1423 14.4261 11.3294 14.4261C11.8161 14.4261 12.3401 14.4261 12.8268 14.3147C15.26 13.8323 17.1316 11.5316 17.1316 9.08247C17.1316 8.37742 17.1316 7.67236 17.1316 6.9673C17.1316 6.15092 16.4578 5.48297 15.6343 5.48297C14.399 5.48297 13.1637 5.48297 11.9284 5.48297C10.0567 5.48297 8.52189 6.15092 7.32402 7.59814C7.24915 7.70947 7.17428 7.74658 6.98711 7.70947C6.61278 7.59814 6.20101 7.52393 5.78923 7.52393C4.32932 7.52393 2.90684 7.52393 1.44693 7.52393C0.735687 7.52393 0.0618802 8.15477 0.0244465 8.82271C0.0244465 9.82464 -0.0504209 10.8266 0.0618802 11.7914C0.398783 14.4261 2.75711 16.467 5.45233 16.467C6.23844 16.467 7.06198 16.467 7.84809 16.467C7.99782 16.467 8.07269 16.467 8.07269 16.6526C8.07269 17.2092 8.07269 17.7658 8.07269 18.3224C8.07269 18.3967 8.11012 18.4709 7.99782 18.508C7.69835 18.6193 7.43632 18.7306 7.21171 18.9533C7.13685 18.9904 7.06198 18.9904 7.02455 18.9533C5.93897 18.7677 5.04056 19.2873 4.66622 20.2892C4.62879 20.4376 4.55392 20.4376 4.40419 20.4376C3.46835 20.2892 2.5325 20.7716 2.1956 21.6622C2.12073 21.8477 2.00843 21.9219 1.78383 21.9219C0.997722 21.9219 0.997722 21.9219 1.03516 22.7012C1.03516 22.8496 1.07259 22.9239 1.25976 22.9239C1.6341 22.9239 2.00843 22.9239 2.38277 22.9239C2.86941 22.9239 2.98171 22.8125 3.05658 22.3672C3.13144 21.8848 3.46835 21.5509 3.95498 21.4395C4.36675 21.3653 4.85339 21.588 4.92826 22.0333C5.04056 22.4415 5.26516 22.4786 5.60207 22.4415C5.71437 22.4415 5.78923 22.4415 5.90154 22.4415C6.05127 22.4415 6.0887 22.4043 6.0887 22.2559C6.05127 21.9219 5.93897 21.588 5.71437 21.2911C5.6395 21.1798 5.56463 21.0684 5.56463 20.92C5.60207 20.4376 5.93897 20.0665 6.42561 19.9923C6.83738 19.9181 7.36145 20.1407 7.43632 20.586C7.54862 20.9942 7.77322 21.0313 8.11012 20.9942C8.18499 20.9942 8.25986 20.9942 8.33473 20.9942C8.59676 21.0313 8.59676 20.8829 8.55933 20.6974C8.48446 20.2892 8.33473 19.9552 8.07269 19.6212C8.18499 19.5841 8.22242 19.547 8.33473 19.547C8.6342 19.4357 8.89623 19.5099 9.15827 19.6954C9.34543 19.8439 9.15827 20.0294 9.12083 20.1779C9.12083 20.4005 9.12083 20.5489 9.38287 20.5118C9.5326 20.5118 9.68234 20.5118 9.83207 20.5118C10.0567 20.5489 10.1315 20.4747 10.169 20.2521C10.2813 19.8068 10.5807 19.5841 10.9925 19.547C11.3669 19.5099 11.6663 19.6583 11.9284 19.9552C12.0407 20.1036 12.0781 20.215 11.8535 20.2892C10.9551 20.7345 10.3561 21.4395 10.169 22.4415C10.0567 22.9981 10.0567 22.9981 10.6182 22.9981C11.1048 22.9981 11.0674 22.9981 11.1797 22.5528C11.3669 21.8106 11.8535 21.3282 12.5647 21.1056C13.276 20.8829 13.9498 21.1056 14.5113 21.588C14.661 21.7364 14.6236 21.7735 14.4738 21.8848C14.0621 22.1446 13.8 22.5528 13.6877 22.9981C13.538 23.5176 13.538 23.5176 14.0995 23.5176C14.1744 23.5176 14.2492 23.5176 14.3241 23.5176C14.5487 23.5547 14.661 23.4805 14.6985 23.2578C14.8108 22.8496 15.1477 22.5899 15.5594 22.5157C15.9338 22.4786 16.4204 22.7012 16.4953 23.1094C16.6076 23.5547 16.8696 23.5547 17.2065 23.5176C17.2814 23.5176 17.3562 23.5176 17.4311 23.5176C17.5808 23.5547 17.6557 23.4805 17.6183 23.3321C17.6183 23.2578 17.5808 23.1836 17.5808 23.0723C17.4685 22.627 17.4685 22.627 17.9552 22.5528C18.0675 22.5528 18.1798 22.5528 18.2921 22.5528C18.7787 22.627 18.7787 22.627 18.6664 23.1094C18.5541 23.5176 18.5541 23.5176 19.0033 23.5176C19.1531 23.5176 19.3028 23.5176 19.4525 23.5176C19.6023 23.5176 19.6397 23.4805 19.7146 23.3321C19.8643 22.8125 20.2012 22.5157 20.6878 22.5157C21.137 22.5157 21.5114 22.8125 21.6611 23.3321C21.6986 23.4805 21.7734 23.5176 21.9232 23.5176C22.0355 23.5176 22.1103 23.5176 22.2226 23.5176C22.7841 23.5176 22.8216 23.5176 22.6718 22.961C22.597 22.7383 22.6718 22.6641 22.859 22.5899C23.5328 22.3301 24.1692 22.7383 24.244 23.4805C24.2815 23.8516 24.4312 24 24.843 24C25.8911 24 26.9767 24 28.0248 24C28.811 24 28.811 24 28.811 23.2207C28.811 23.0352 28.7361 22.9981 28.5489 22.9981C27.5382 22.9981 26.4901 22.9981 25.4794 22.9981C25.2922 22.9981 25.2173 22.961 25.1425 22.7754C24.8804 22.1075 24.3938 21.6993 23.72 21.5509C23.2708 21.4395 22.8964 21.5137 22.4472 21.6251C23.3456 19.6954 24.244 17.7658 25.1799 15.8362C25.3671 15.3909 25.3296 15.1682 24.8804 14.9827C24.3563 14.7229 23.8697 14.4632 23.3456 14.2034C23.1959 14.1292 23.1585 14.0921 23.2333 13.9065C23.4954 13.2386 23.7948 12.6449 24.1317 12.014ZM10.1315 18.4338C10.1315 18.7677 9.98181 18.7677 9.68234 18.6935C9.12083 18.5451 9.0834 18.174 9.12083 17.6916C9.15827 17.135 9.12083 16.5412 9.12083 15.9846C9.12083 15.5764 8.9711 15.3909 8.52189 15.3909C7.69835 15.3909 6.87481 15.3909 6.05127 15.1311C4.21702 14.4632 3.05658 12.7933 3.05658 10.8266C3.05658 10.4184 3.05658 10.4184 2.6448 10.4184C2.04587 10.4184 2.04587 10.4184 2.04587 11.0121C2.04587 12.4222 2.56994 13.6097 3.50578 14.6487C3.61808 14.76 3.76782 14.8714 3.88012 14.9827C3.88012 14.9827 3.84268 15.0198 3.80525 15.0569C2.75711 14.6116 1.971 13.8694 1.48436 12.8304C1.22232 12.1996 1.07259 11.5687 1.07259 10.9008C1.07259 10.2699 1.07259 9.6391 1.07259 9.04536C1.07259 8.60007 1.25976 8.41452 1.70896 8.41452C2.98171 8.41452 4.21702 8.41452 5.48976 8.41452C8.07269 8.41452 10.0941 10.4555 10.1315 12.9788C10.169 14.8343 10.1315 16.6155 10.1315 18.4338ZM10.6182 10.7152C10.1315 9.67621 9.4203 8.82271 8.40959 8.26609C8.22242 8.15477 8.22242 8.08055 8.37216 7.93212C9.27057 7.00441 10.3561 6.522 11.6289 6.48489C12.9391 6.44779 14.2492 6.48489 15.5594 6.48489C15.8963 6.48489 16.1584 6.67044 16.1584 6.9673C16.1584 7.93212 16.2707 8.93404 16.0461 9.89886C15.7092 11.3832 14.8482 12.4222 13.4631 13.0531C13.4257 13.0531 13.3883 13.0531 13.3883 13.0531C13.3883 13.0531 13.3883 13.0531 13.3508 13.016C13.9498 12.4964 14.399 11.8656 14.6985 11.1605C15.0354 10.3442 15.1851 9.52777 15.1851 8.63717C15.1851 8.48874 15.1477 8.45163 15.0354 8.48874C15.0354 8.48874 14.9979 8.48874 14.9605 8.48874C14.7359 8.48874 14.4364 8.41452 14.2492 8.52585C14.0621 8.63717 14.2118 8.97115 14.1744 9.1938C14.0246 11.0492 13.0888 12.3851 11.3669 13.1273C11.3294 13.1273 11.292 13.1644 11.2546 13.1644C11.2546 13.1644 11.2171 13.1644 11.1797 13.1644C11.1797 12.2738 10.9925 11.4574 10.6182 10.7152ZM21.3616 13.387C21.6986 12.7933 21.998 12.1996 22.2975 11.6058C22.3724 11.4574 22.4098 11.4203 22.5595 11.5316C22.7093 11.6429 23.0087 11.6801 23.0462 11.8285C23.0836 11.9769 22.8964 12.1625 22.8216 12.348C22.1478 13.6468 21.474 14.9085 20.8001 16.2073C20.7253 16.3557 20.613 16.5412 20.4258 16.5412C20.0515 16.5412 19.9392 16.2444 20.0889 15.9104C20.5007 15.0198 20.9124 14.2034 21.3616 13.387ZM23.8697 15.5393C24.0194 15.6135 24.0194 15.6877 23.9446 15.8362C23.1585 17.4689 22.4098 19.0646 21.6611 20.6974C21.6237 20.7716 21.5863 20.8458 21.5488 20.8829C21.3991 21.254 21.137 21.5137 20.6504 21.4024C20.3135 21.3282 20.014 21.4395 19.7146 21.6251C19.5648 21.7364 19.4151 21.7364 19.2279 21.6251C18.891 21.4395 18.5167 21.3653 18.0675 21.3653C18.3295 20.8829 18.5916 20.4005 18.8536 19.9552C19.0408 19.5841 19.2654 19.1759 19.49 18.8048C19.6023 18.6564 19.5648 18.5451 19.3777 18.4709C19.1531 18.3595 18.891 18.0998 18.7039 18.174C18.5167 18.2482 18.4418 18.5822 18.3295 18.8048C17.8429 19.6954 17.3562 20.586 16.8322 21.5137C16.7573 21.6622 16.6824 21.7364 16.5327 21.6251C16.383 21.5137 16.1958 21.4766 15.9712 21.4395C15.6343 21.3653 15.4471 21.1427 15.4097 20.7716C15.2974 19.7325 15.522 18.8048 16.0461 17.8771C16.9445 16.3557 17.8054 14.8343 18.6664 13.3128C18.7787 13.1273 18.8536 13.0531 19.0782 13.2015C19.3777 13.387 19.8643 13.4241 19.9392 13.6839C20.014 13.9066 19.6771 14.2405 19.5274 14.5374C19.3777 14.8714 19.1905 15.1682 19.0408 15.4651C18.7039 16.133 18.9659 16.9494 19.6397 17.2834C20.3135 17.6174 21.137 17.4318 21.5114 16.7639C21.8483 16.2073 22.1103 15.6135 22.4098 15.0569C22.4847 14.9085 22.5595 14.8714 22.7093 14.9456C23.121 15.2053 23.4954 15.3909 23.8697 15.5393ZM22.6344 8.82271C23.2333 7.67236 23.8697 6.48489 24.4686 5.33454C25.105 4.14707 25.7414 2.9225 26.3778 1.73503C26.6772 1.17841 27.2013 0.918651 27.8377 0.992868C28.3992 1.06708 28.8484 1.51238 28.9981 2.06901C29.073 2.40298 28.9981 2.69985 28.8484 2.99672C27.6131 5.37165 26.3778 7.70947 25.105 10.0844C24.843 10.5668 24.4312 10.8266 24.0569 10.8266C22.7841 10.8637 22.1478 9.78753 22.6344 8.82271Z" fill="#2C9D65"/>
<path d="M45.0895 17.3236C44.0682 17.3236 43.1069 17.1491 42.2657 16.8582C41.4246 16.5091 40.6436 16.0436 40.0428 15.4618C39.4419 14.88 38.9012 14.1236 38.5407 13.3673C38.1802 12.5527 38 11.68 38 10.6909C38 9.70182 38.1802 8.82909 38.5407 8.01454C38.9012 7.2 39.3819 6.50182 40.0428 5.92C40.7036 5.33818 41.4246 4.87273 42.2657 4.52364C43.167 4.17455 44.0682 4 45.0895 4C46.1109 4 47.0722 4.17455 47.9734 4.52364C48.8746 4.87273 49.5956 5.33818 50.1964 6.03636L48.9347 7.2C48.394 6.67636 47.8533 6.26909 47.1924 6.03636C46.5315 5.80364 45.8706 5.62909 45.1496 5.62909C44.3686 5.62909 43.7077 5.74545 43.0468 5.97818C42.3859 6.21091 41.8452 6.56 41.3645 7.02545C40.8839 7.49091 40.5234 8.01455 40.223 8.65455C39.9827 9.23636 39.8625 9.93455 39.8625 10.6327C39.8625 11.3309 39.9827 12.0291 40.223 12.6691C40.4633 13.2509 40.8839 13.8327 41.3645 14.24C41.8452 14.6473 42.3859 15.0545 43.0468 15.2873C43.7077 15.52 44.4287 15.6364 45.1496 15.6364C45.8706 15.6364 46.5916 15.52 47.1924 15.2873C47.8533 15.0545 48.394 14.6473 48.9347 14.1236L50.1964 15.2873C49.5956 15.9855 48.8146 16.4509 47.9734 16.8C47.1323 17.1491 46.171 17.3236 45.0895 17.3236ZM50.6771 17.1491L56.8053 4.11636H58.7279L64.7961 17.1491H62.7533L57.286 5.16364H58.067L52.6597 17.1491H50.6771ZM53.2605 13.8909L53.8013 12.3782H61.3715L61.9122 13.8909H53.2605ZM76.0913 16.2764V5.74545H70.2034L70.0832 8.48C70.0231 9.41091 69.963 10.2836 69.903 11.0982C69.8429 11.9709 69.7227 12.7273 69.5425 13.3673C69.3622 14.0655 69.182 14.5891 68.8816 14.9964C68.6413 15.4036 68.2808 15.6945 67.8602 15.8109L65.7574 15.4618C66.238 15.52 66.6586 15.3455 66.959 14.9964C67.3195 14.6473 67.5598 14.1236 67.74 13.4255C67.9203 12.7273 68.1005 11.9709 68.1606 11.0982C68.2207 10.2255 68.3408 9.23636 68.3408 8.24727L68.461 4.05818H77.8937V16.2182H76.0913V16.2764ZM65.2767 20V15.52H79.9365V20H78.134V17.1491H67.0792V20H65.2767ZM88.6482 17.3236C87.6268 17.3236 86.6655 17.1491 85.7643 16.8C84.9232 16.4509 84.1421 15.9855 83.4812 15.4036C82.8203 14.8218 82.3397 14.0655 81.9792 13.3091C81.6187 12.4945 81.4385 11.6218 81.4385 10.6909C81.4385 9.76 81.6187 8.82909 81.9792 8.07273C82.3397 7.25818 82.8203 6.56 83.4812 5.97818C84.1421 5.39636 84.8631 4.87273 85.7643 4.58182C86.6655 4.23273 87.5667 4.05818 88.6482 4.05818C89.6696 4.05818 90.6308 4.23273 91.472 4.58182C92.3732 4.93091 93.0942 5.39636 93.7551 5.97818C94.416 6.56 94.8966 7.25818 95.2571 8.07273C95.6176 8.88727 95.7978 9.76 95.7978 10.7491C95.7978 11.7382 95.6176 12.6109 95.2571 13.4255C94.8966 14.24 94.416 14.9382 93.7551 15.52C93.0942 16.1018 92.3732 16.5673 91.472 16.9164C90.5708 17.1491 89.6696 17.3236 88.6482 17.3236ZM88.6482 15.6364C89.3692 15.6364 90.0901 15.52 90.6909 15.2873C91.3518 15.0545 91.8925 14.7055 92.3732 14.24C92.8538 13.7745 93.2143 13.2509 93.4547 12.6109C93.695 12.0291 93.8752 11.3309 93.8752 10.6327C93.8752 9.93455 93.7551 9.23636 93.4547 8.65455C93.2143 8.07273 92.8538 7.49091 92.3732 7.08364C91.8925 6.61818 91.3518 6.26909 90.6909 6.03636C90.0901 5.80364 89.3692 5.68727 88.6482 5.68727C87.8671 5.68727 87.2062 5.80364 86.5454 6.03636C85.9445 6.26909 85.3437 6.61818 84.8631 7.08364C84.3824 7.54909 84.022 8.07273 83.7216 8.65455C83.4812 9.23636 83.3611 9.93455 83.3611 10.6327C83.3611 11.3309 83.4812 12.0291 83.7216 12.6109C83.9619 13.1927 84.3824 13.7745 84.8631 14.24C85.3437 14.7055 85.8845 15.0545 86.5454 15.2873C87.2062 15.52 87.8671 15.6364 88.6482 15.6364ZM98.8619 17.1491V4.11636H104.63C106.072 4.11636 107.213 4.40727 108.054 4.98909C108.895 5.57091 109.316 6.38545 109.316 7.49091C109.316 8.53818 108.895 9.35273 108.114 9.93455C107.333 10.5164 106.252 10.7491 104.99 10.7491L105.351 10.1673C106.853 10.1673 107.994 10.4582 108.775 11.04C109.556 11.6218 109.977 12.4364 109.977 13.5418C109.977 14.6473 109.556 15.52 108.715 16.16C107.874 16.8 106.612 17.0909 104.99 17.0909H98.8619V17.1491ZM100.785 15.6945H104.99C106.012 15.6945 106.793 15.52 107.273 15.1709C107.814 14.8218 108.054 14.24 108.054 13.4836C108.054 12.7273 107.814 12.1455 107.273 11.8545C106.733 11.5055 106.012 11.3309 104.99 11.3309H100.785V15.6945ZM100.785 9.87636H104.51C105.471 9.87636 106.132 9.70182 106.672 9.35273C107.153 9.00364 107.393 8.48 107.393 7.78182C107.393 7.08364 107.153 6.56 106.672 6.15273C106.192 5.80364 105.471 5.62909 104.51 5.62909H100.785V9.87636ZM119.289 17.3236C118.268 17.3236 117.307 17.1491 116.406 16.8C115.504 16.4509 114.783 15.9855 114.122 15.4036C113.462 14.8218 112.981 14.0655 112.62 13.3091C112.26 12.4945 112.08 11.6218 112.08 10.6909C112.08 9.76 112.26 8.82909 112.62 8.07273C112.981 7.25818 113.462 6.56 114.122 5.97818C114.783 5.39636 115.504 4.87273 116.406 4.58182C117.247 4.23273 118.208 4.05818 119.289 4.05818C120.311 4.05818 121.272 4.23273 122.113 4.58182C122.954 4.93091 123.735 5.39636 124.396 5.97818C125.057 6.56 125.538 7.25818 125.898 8.07273C126.259 8.88727 126.439 9.76 126.439 10.7491C126.439 11.7382 126.259 12.6109 125.898 13.4255C125.538 14.24 125.057 14.9382 124.396 15.52C123.735 16.1018 123.014 16.5673 122.113 16.9164C121.272 17.1491 120.311 17.3236 119.289 17.3236ZM119.289 15.6364C120.01 15.6364 120.731 15.52 121.332 15.2873C121.993 15.0545 122.534 14.7055 123.014 14.24C123.495 13.7745 123.856 13.2509 124.096 12.6109C124.336 12.0291 124.516 11.3309 124.516 10.6327C124.516 9.93455 124.396 9.23636 124.096 8.65455C123.856 8.07273 123.495 7.49091 123.014 7.08364C122.534 6.61818 121.993 6.26909 121.332 6.03636C120.731 5.80364 120.01 5.68727 119.289 5.68727C118.508 5.68727 117.847 5.80364 117.187 6.03636C116.586 6.26909 115.985 6.61818 115.504 7.08364C115.024 7.54909 114.663 8.07273 114.363 8.65455C114.122 9.23636 114.002 9.93455 114.002 10.6327C114.002 11.3309 114.122 12.0291 114.363 12.6109C114.603 13.1927 115.024 13.7745 115.504 14.24C115.985 14.7055 116.526 15.0545 117.187 15.2873C117.847 15.52 118.508 15.6364 119.289 15.6364ZM138.095 16.2764V5.74545H132.207L132.087 8.48C132.027 9.41091 131.967 10.2836 131.906 11.0982C131.846 11.9709 131.726 12.7273 131.546 13.3673C131.366 14.0655 131.185 14.5891 130.885 14.9964C130.645 15.4036 130.284 15.6945 129.864 15.8109L127.761 15.4618C128.241 15.52 128.662 15.3455 128.962 14.9964C129.323 14.6473 129.563 14.1236 129.743 13.4255C129.924 12.7273 130.104 11.9709 130.164 11.0982C130.224 10.2255 130.344 9.23636 130.344 8.24727L130.464 4.05818H139.897V16.2182H138.095V16.2764ZM127.34 20V15.52H142V20H140.198V17.1491H129.143V20H127.34Z" fill="#2C9D65"/>
</svg>
