<svg viewBox="0 0 155 115" fill="none" xmlns="http://www.w3.org/2000/svg">
<path d="M153.177 98.5782H0.254895C0.187293 98.5782 0.122459 98.5514 0.0746569 98.5036C0.0268548 98.4558 0 98.3909 0 98.3233C0 98.2557 0.0268548 98.1909 0.0746569 98.1431C0.122459 98.0953 0.187293 98.0684 0.254895 98.0684H153.192C153.259 98.0697 153.323 98.097 153.371 98.1445C153.418 98.1921 153.446 98.2561 153.447 98.3233C153.447 98.3581 153.44 98.3926 153.426 98.4245C153.412 98.4565 153.392 98.4853 153.367 98.5092C153.342 98.5331 153.312 98.5515 153.279 98.5634C153.246 98.5753 153.212 98.5803 153.177 98.5782Z" fill="#D1D3D4"/>
<path d="M140.753 108.407H48.0325L61.8937 0.254913H154.619L140.753 108.407Z" fill="white"/>
<path d="M140.758 108.687H48.0325C47.9958 108.688 47.9596 108.68 47.9262 108.665C47.8927 108.65 47.8629 108.628 47.8387 108.601C47.8154 108.574 47.7979 108.542 47.7874 108.508C47.7769 108.473 47.7735 108.437 47.7776 108.402L61.6337 0.224322C61.6411 0.163019 61.6705 0.106489 61.7164 0.0652336C61.7624 0.0239783 61.8217 0.00080175 61.8835 1.2379e-05H154.619C154.656 -0.000349326 154.693 0.00721948 154.726 0.0221994C154.76 0.0371794 154.789 0.0592175 154.814 0.0868081C154.838 0.114399 154.856 0.14689 154.866 0.182061C154.877 0.217232 154.88 0.254253 154.874 0.290593L141.008 108.438C141.007 108.503 140.98 108.566 140.933 108.613C140.887 108.659 140.824 108.686 140.758 108.687ZM48.323 108.178H140.529L154.329 0.509803H62.1435L48.323 108.178Z" fill="#2D3748"/>
<path d="M141.161 13.4279H82.3822C82.0903 13.4355 81.8003 13.3786 81.5329 13.2611C81.2655 13.1437 81.0274 12.9687 80.8355 12.7485C80.6436 12.5284 80.5027 12.2686 80.4229 11.9877C80.343 11.7068 80.3262 11.4118 80.3736 11.1236L80.5265 9.92564C80.6199 9.29768 80.9319 8.7228 81.4075 8.30224C81.8831 7.88167 82.4918 7.64237 83.1265 7.62648H141.9C142.192 7.61899 142.481 7.67584 142.748 7.79298C143.015 7.91013 143.253 8.08468 143.445 8.30421C143.636 8.52375 143.777 8.78286 143.858 9.06312C143.938 9.34337 143.955 9.63787 143.909 9.92564L143.751 11.1236C143.659 11.7508 143.349 12.3256 142.875 12.747C142.402 13.1684 141.795 13.4094 141.161 13.4279Z" fill="#D9D9D9"/>
<path d="M74.1388 8.57469H68.8982C68.8306 8.57469 68.7658 8.54783 68.718 8.50003C68.6702 8.45223 68.6433 8.38739 68.6433 8.31979C68.6446 8.2526 68.6719 8.18852 68.7194 8.141C68.7669 8.09348 68.831 8.0662 68.8982 8.0649H74.1388C74.206 8.0662 74.2701 8.09348 74.3176 8.141C74.3652 8.18852 74.3924 8.2526 74.3937 8.31979C74.3937 8.38739 74.3669 8.45223 74.3191 8.50003C74.2713 8.54783 74.2064 8.57469 74.1388 8.57469Z" fill="#D1D3D4"/>
<path d="M73.8687 10.8739H68.6025C68.5349 10.8739 68.4701 10.847 68.4223 10.7992C68.3745 10.7514 68.3476 10.6866 68.3476 10.619C68.3476 10.5514 68.3745 10.4865 68.4223 10.4387C68.4701 10.3909 68.5349 10.3641 68.6025 10.3641H73.8687C73.9363 10.3641 74.0011 10.3909 74.0489 10.4387C74.0967 10.4865 74.1236 10.5514 74.1236 10.619C74.1236 10.6866 74.0967 10.7514 74.0489 10.7992C74.0011 10.847 73.9363 10.8739 73.8687 10.8739Z" fill="#D1D3D4"/>
<path d="M73.5475 13.1679H68.3119C68.2443 13.1679 68.1795 13.141 68.1317 13.0932C68.0839 13.0454 68.0571 12.9806 68.0571 12.913C68.0571 12.8454 68.0839 12.7806 68.1317 12.7328C68.1795 12.685 68.2443 12.6581 68.3119 12.6581H73.5475C73.6151 12.6581 73.6799 12.685 73.7277 12.7328C73.7755 12.7806 73.8024 12.8454 73.8024 12.913C73.8024 12.9806 73.7755 13.0454 73.7277 13.0932C73.6799 13.141 73.6151 13.1679 73.5475 13.1679Z" fill="#D1D3D4"/>
<path d="M74.1388 8.57469H68.8982C68.8306 8.57469 68.7658 8.54783 68.718 8.50003C68.6702 8.45223 68.6433 8.38739 68.6433 8.31979C68.6446 8.2526 68.6719 8.18852 68.7194 8.141C68.7669 8.09348 68.831 8.0662 68.8982 8.0649H74.1388C74.206 8.0662 74.2701 8.09348 74.3176 8.141C74.3652 8.18852 74.3924 8.2526 74.3937 8.31979C74.3937 8.38739 74.3669 8.45223 74.3191 8.50003C74.2713 8.54783 74.2064 8.57469 74.1388 8.57469Z" stroke="#2D3748" stroke-width="0.509791" stroke-linecap="round" stroke-linejoin="round"/>
<path d="M73.8687 10.8739H68.6025C68.5349 10.8739 68.4701 10.847 68.4223 10.7992C68.3745 10.7514 68.3476 10.6866 68.3476 10.619C68.3476 10.5514 68.3745 10.4865 68.4223 10.4387C68.4701 10.3909 68.5349 10.3641 68.6025 10.3641H73.8687C73.9363 10.3641 74.0011 10.3909 74.0489 10.4387C74.0967 10.4865 74.1236 10.5514 74.1236 10.619C74.1236 10.6866 74.0967 10.7514 74.0489 10.7992C74.0011 10.847 73.9363 10.8739 73.8687 10.8739Z" stroke="#2D3748" stroke-width="0.509791" stroke-linecap="round" stroke-linejoin="round"/>
<path d="M73.5475 13.1679H68.3119C68.2443 13.1679 68.1795 13.141 68.1317 13.0932C68.0839 13.0454 68.0571 12.9806 68.0571 12.913C68.0571 12.8454 68.0839 12.7806 68.1317 12.7328C68.1795 12.685 68.2443 12.6581 68.3119 12.6581H73.5475C73.6151 12.6581 73.6799 12.685 73.7277 12.7328C73.7755 12.7806 73.8024 12.8454 73.8024 12.913C73.8024 12.9806 73.7755 13.0454 73.7277 13.0932C73.6799 13.141 73.6151 13.1679 73.5475 13.1679Z" stroke="#2D3748" stroke-width="0.509791" stroke-linecap="round" stroke-linejoin="round"/>
<path d="M137.404 41.7366H69.5405C68.7858 41.7565 68.0359 41.61 67.3443 41.3073C66.6526 41.0046 66.0361 40.5532 65.5387 39.9852C65.0413 39.4172 64.6752 38.7466 64.4663 38.021C64.2575 37.2955 64.2111 36.5328 64.3305 35.7873L65.4469 27.0648C65.682 25.4304 66.4874 23.9317 67.7207 22.8337C68.954 21.7357 70.5357 21.1091 72.1863 21.0646H140.055C140.81 21.0486 141.559 21.1991 142.249 21.5052C142.939 21.8114 143.553 22.2657 144.048 22.836C144.543 23.4063 144.906 24.0785 145.112 24.8049C145.318 25.5314 145.361 26.2942 145.239 27.0393L144.143 35.7873C143.898 37.4129 143.088 38.9001 141.856 39.988C140.624 41.076 139.047 41.695 137.404 41.7366Z" fill="white"/>
<path d="M137.404 41.9915H69.5405C68.7538 42.0073 67.9729 41.8529 67.2513 41.5387C66.5298 41.2246 65.8847 40.7582 65.3603 40.1715C64.8388 39.5677 64.4541 38.8583 64.2323 38.0919C64.0106 37.3255 63.9571 36.5202 64.0756 35.7312L65.2022 27.0087C65.452 25.3193 66.289 23.772 67.5663 22.6383C68.8435 21.5047 70.4793 20.8572 72.1864 20.8097H140.055C140.839 20.7967 141.617 20.9526 142.335 21.2666C143.054 21.5806 143.697 22.0454 144.22 22.6296C144.741 23.2346 145.126 23.9449 145.347 24.7121C145.569 25.4793 145.623 26.2852 145.504 27.075L144.398 35.7873C144.148 37.4789 143.31 39.0282 142.031 40.1629C140.751 41.2976 139.113 41.9451 137.404 41.9915ZM72.1864 21.3195C70.6031 21.3659 69.0868 21.968 67.903 23.0204C66.7192 24.0727 65.9436 25.5081 65.712 27.075L64.5803 35.7873C64.4733 36.5043 64.5218 37.2359 64.7223 37.9325C64.9228 38.6291 65.2708 39.2745 65.7426 39.8249C66.2197 40.3567 66.8061 40.7791 67.4616 41.0633C68.1171 41.3475 68.8262 41.4867 69.5405 41.4715H137.404C138.988 41.4286 140.507 40.8286 141.693 39.7769C142.879 38.7252 143.656 37.2891 143.888 35.7211L145.01 26.9985C145.117 26.2808 145.069 25.5484 144.868 24.8509C144.668 24.1535 144.32 23.5072 143.848 22.9559C143.371 22.425 142.785 22.0031 142.131 21.719C141.476 21.4348 140.768 21.2951 140.055 21.3093L72.1864 21.3195Z" fill="#2D3748"/>
<path d="M82.9558 36.3061C86.038 33.4148 86.4753 28.8736 83.9327 26.1631C81.39 23.4526 76.8301 23.5992 73.748 26.4905C70.6658 29.3818 70.2284 33.923 72.7711 36.6335C75.3138 39.344 79.8736 39.1974 82.9558 36.3061Z" fill="#2B6CB0"/>
<path d="M83.259 29.1193C83.2036 29.1923 83.144 29.2621 83.0806 29.3283L76.9886 34.7219C76.7796 34.9054 76.6368 34.9105 76.4788 34.7219L73.8687 31.5815C73.7259 31.4116 73.7514 31.2417 73.9451 31.0718L74.7965 30.3886C74.9749 30.2459 75.1228 30.2459 75.2553 30.3886L76.8153 32.2188C76.9784 32.4074 77.116 32.4125 77.325 32.2188L82.0253 28.0793C82.2292 27.9009 82.372 27.9009 82.5351 28.0793C82.6982 28.2577 82.9531 28.5534 83.1571 28.793C83.2029 28.8542 83.2335 28.9306 83.2743 28.9969L83.259 29.1193Z" fill="white"/>
<path d="M135.91 28.2679H92.2772C92.0744 28.2679 91.8799 28.1873 91.7365 28.0439C91.5931 27.9005 91.5125 27.706 91.5125 27.5032C91.5125 27.3004 91.5931 27.1059 91.7365 26.9625C91.8799 26.8191 92.0744 26.7385 92.2772 26.7385H135.91C136.113 26.7385 136.307 26.8191 136.451 26.9625C136.594 27.1059 136.675 27.3004 136.675 27.5032C136.675 27.706 136.594 27.9005 136.451 28.0439C136.307 28.1873 136.113 28.2679 135.91 28.2679Z" fill="#D9D9D9"/>
<path d="M126.071 35.6242H91.3341C91.1313 35.6242 90.9368 35.5436 90.7934 35.4002C90.65 35.2568 90.5694 35.0623 90.5694 34.8595C90.5694 34.6567 90.65 34.4622 90.7934 34.3188C90.9368 34.1754 91.1313 34.0948 91.3341 34.0948H126.071C126.274 34.0948 126.469 34.1754 126.612 34.3188C126.755 34.4622 126.836 34.6567 126.836 34.8595C126.836 35.0623 126.755 35.2568 126.612 35.4002C126.469 35.5436 126.274 35.6242 126.071 35.6242Z" fill="#D9D9D9"/>
<path d="M134.335 65.6508H66.4716C65.7146 65.6706 64.9626 65.523 64.2693 65.2185C63.5759 64.914 62.9583 64.4602 62.4607 63.8895C61.963 63.3187 61.5974 62.6451 61.3902 61.9168C61.1829 61.1885 61.139 60.4234 61.2616 59.6761L62.3831 50.9536C62.6204 49.321 63.4267 47.8248 64.6598 46.7288C65.8929 45.6329 67.4734 45.0077 69.1225 44.9635H136.986C137.743 44.9457 138.495 45.0953 139.188 45.4016C139.88 45.708 140.497 46.1636 140.993 46.7358C141.489 47.3081 141.853 47.9828 142.058 48.7119C142.264 49.441 142.305 50.2065 142.181 50.9536L141.064 59.6761C140.825 61.3046 140.019 62.7965 138.788 63.8894C137.557 64.9822 135.98 65.606 134.335 65.6508Z" fill="white"/>
<path d="M134.34 65.9057H66.4716C65.6861 65.9215 64.9064 65.7675 64.1858 65.4543C63.4653 65.141 62.8208 64.676 62.2964 64.0909C61.7755 63.4857 61.391 62.7754 61.1693 62.0083C60.9477 61.2412 60.8939 60.4353 61.0117 59.6455L62.1435 50.923C62.3957 49.2333 63.2349 47.6863 64.5139 46.5537C65.7929 45.421 67.43 44.775 69.1378 44.729H136.986C137.772 44.7133 138.553 44.8672 139.274 45.1804C139.995 45.4936 140.641 45.9587 141.166 46.5439C141.686 47.1496 142.07 47.86 142.292 48.6269C142.513 49.3939 142.568 50.1995 142.451 50.9893L141.329 59.7118C141.078 61.4011 140.24 62.9479 138.962 64.0807C137.684 65.2134 136.047 65.8596 134.34 65.9057ZM69.1225 45.2388C67.5412 45.2872 66.0272 45.8895 64.8448 46.9406C63.6624 47.9916 62.8867 49.4246 62.6533 50.9893L61.5368 59.7118C61.4298 60.4296 61.4782 61.162 61.6787 61.8594C61.8792 62.5569 62.2272 63.2031 62.6991 63.7544C63.1762 64.2846 63.7619 64.7057 64.4165 64.989C65.071 65.2723 65.7789 65.4111 66.492 65.396H134.34C135.924 65.3521 137.442 64.7517 138.628 63.7002C139.814 62.6487 140.592 61.2131 140.825 59.6455L141.941 50.923C142.05 50.2052 142.003 49.4722 141.803 48.7744C141.602 48.0766 141.253 47.4304 140.779 46.8804C140.302 46.3499 139.716 45.9286 139.062 45.6453C138.407 45.362 137.699 45.2234 136.986 45.2388H69.1225Z" fill="#2D3748"/>
<path d="M74.3785 62.7501C73.4415 62.7685 72.5117 62.584 71.6529 62.2091C70.794 61.8342 70.0265 61.2779 69.4029 60.5784C68.7835 59.8576 68.3263 59.0121 68.0624 58.099C67.7985 57.186 67.7341 56.2269 67.8735 55.2868C68.1707 53.2671 69.1712 51.4171 70.6989 50.063C72.2265 48.7088 74.1831 47.9374 76.2239 47.8846C77.1611 47.8659 78.0914 48.0498 78.951 48.4237C79.8106 48.7976 80.5793 49.3528 81.2046 50.0513C81.8247 50.7726 82.2823 51.6191 82.5462 52.533C82.8101 53.447 82.8741 54.4071 82.7339 55.348C82.4366 57.3685 81.4353 59.2192 79.9066 60.5734C78.378 61.9277 76.4201 62.6986 74.3785 62.7501ZM76.2188 48.3944C74.3033 48.4478 72.4677 49.174 71.034 50.4454C69.6004 51.7169 68.6601 53.4526 68.3782 55.348C68.2459 56.2197 68.3036 57.1097 68.5473 57.9571C68.7911 58.8044 69.2151 59.5891 69.7903 60.2573C70.366 60.9012 71.074 61.4132 71.8659 61.7581C72.6578 62.103 73.5149 62.2727 74.3785 62.2556C76.2949 62.2034 78.1316 61.4778 79.5664 60.2063C81.0011 58.9347 81.9421 57.1984 82.2241 55.3021C82.3556 54.4324 82.298 53.5445 82.0552 52.699C81.8124 51.8536 81.3901 51.0704 80.8171 50.403C80.2395 49.7554 79.5285 49.2405 78.7329 48.8938C77.9374 48.547 77.0762 48.3767 76.2086 48.3944H76.2188Z" fill="#D1D3D4"/>
<path d="M80.1952 53.0335C80.1397 53.1066 80.0802 53.1763 80.0167 53.2426L73.9247 58.6361C73.7106 58.8197 73.5679 58.8248 73.415 58.6361L70.7793 55.5009C70.6366 55.3327 70.6672 55.1696 70.8609 54.9911L71.7123 54.308C71.8907 54.1653 72.0385 54.1653 72.166 54.308L73.731 56.1382C73.8942 56.3319 74.0318 56.3319 74.2408 56.1382L78.9768 51.963C79.1807 51.7845 79.3183 51.7845 79.4866 51.963C79.6548 52.1414 79.8995 52.4371 80.1034 52.6818C80.1501 52.7443 80.191 52.8108 80.2258 52.8806L80.1952 53.0335Z" fill="white"/>
<path d="M132.846 52.1822H89.2134C89.0106 52.1822 88.8161 52.1016 88.6726 51.9582C88.5292 51.8148 88.4487 51.6203 88.4487 51.4175C88.4487 51.2147 88.5292 51.0202 88.6726 50.8768C88.8161 50.7334 89.0106 50.6528 89.2134 50.6528H132.846C133.049 50.6528 133.244 50.7334 133.387 50.8768C133.53 51.0202 133.611 51.2147 133.611 51.4175C133.611 51.6203 133.53 51.8148 133.387 51.9582C133.244 52.1016 133.049 52.1822 132.846 52.1822Z" fill="#D9D9D9"/>
<path d="M123.002 59.5385H88.2702C88.0674 59.5385 87.8729 59.4579 87.7295 59.3145C87.5861 59.1711 87.5056 58.9766 87.5056 58.7738C87.5056 58.571 87.5861 58.3765 87.7295 58.2331C87.8729 58.0897 88.0674 58.0091 88.2702 58.0091H123.002C123.205 58.0091 123.4 58.0897 123.543 58.2331C123.686 58.3765 123.767 58.571 123.767 58.7738C123.767 58.9766 123.686 59.1711 123.543 59.3145C123.4 59.4579 123.205 59.5385 123.002 59.5385Z" fill="#D9D9D9"/>
<path d="M131.271 89.5651H63.4078C62.6508 89.5849 61.8988 89.4372 61.2054 89.1328C60.5121 88.8283 59.8945 88.3745 59.3968 87.8037C58.8991 87.233 58.5336 86.5594 58.3263 85.8311C58.119 85.1028 58.0751 84.3377 58.1977 83.5904L59.3141 74.873C59.5594 73.2466 60.37 71.7587 61.6035 70.6706C62.8369 69.5826 64.4144 68.9641 66.0587 68.9237H133.922C134.676 68.9062 135.424 69.0545 136.114 69.3581C136.804 69.6618 137.419 70.1134 137.915 70.681C138.411 71.2486 138.776 71.9183 138.985 72.6427C139.193 73.3671 139.24 74.1285 139.122 74.873L138 83.5904C137.761 85.2189 136.955 86.7108 135.724 87.8037C134.493 88.8965 132.916 89.5202 131.271 89.5651Z" fill="white"/>
<path d="M131.271 89.8251H63.4078C62.6221 89.8415 61.8422 89.6878 61.1216 89.3746C60.4009 89.0613 59.7565 88.5959 59.2326 88.0103C58.7107 87.4055 58.3254 86.6954 58.1028 85.9283C57.8802 85.1611 57.8256 84.355 57.9428 83.5649L59.0847 74.8373C59.336 73.1471 60.1749 71.5996 61.4541 70.4668C62.7333 69.334 64.3709 68.6883 66.0791 68.6433H133.922C134.708 68.6255 135.489 68.7781 136.21 69.0905C136.932 69.4029 137.577 69.8677 138.102 70.4531C138.623 71.0582 139.008 71.7686 139.229 72.5357C139.451 73.3028 139.505 74.1087 139.387 74.8985L138.271 83.621C138.021 85.3138 137.183 86.8644 135.902 87.9994C134.622 89.1344 132.982 89.7809 131.271 89.8251ZM66.0587 69.1531C64.4783 69.2027 62.9655 69.8055 61.7841 70.8564C60.6027 71.9074 59.8278 73.3397 59.5945 74.9036L58.4781 83.6261C58.3687 84.3439 58.4159 85.0769 58.6165 85.7747C58.8172 86.4725 59.1664 87.1186 59.6404 87.6687C60.1172 88.1992 60.7029 88.6205 61.3575 88.9038C62.0121 89.1871 62.7201 89.3257 63.4332 89.3102H131.271C132.856 89.2665 134.375 88.6664 135.561 87.6149C136.748 86.5635 137.527 85.1279 137.761 83.5598L138.877 74.8373C138.987 74.1195 138.939 73.3865 138.739 72.6887C138.538 71.9908 138.189 71.3447 137.715 70.7946C137.238 70.2642 136.652 69.8429 135.998 69.5596C135.343 69.2763 134.635 69.1376 133.922 69.1531H66.0587Z" fill="#2D3748"/>
<path d="M71.3197 86.6644C70.3828 86.6828 69.453 86.4982 68.5941 86.1234C67.7353 85.7485 66.9677 85.1922 66.3442 84.4927C65.7247 83.7719 65.2676 82.9263 65.0037 82.0133C64.7398 81.1003 64.6754 80.1412 64.8148 79.2011C65.1119 77.1814 66.1125 75.3314 67.6401 73.9772C69.1678 72.6231 71.1244 71.8516 73.1652 71.7989C74.1028 71.7805 75.0334 71.965 75.8931 72.3398C76.7528 72.7147 77.5212 73.271 78.1458 73.9706C78.7653 74.6914 79.2224 75.537 79.4863 76.45C79.7502 77.3631 79.8146 78.3222 79.6752 79.2623C79.3779 81.2828 78.3766 83.1334 76.8479 84.4877C75.3192 85.842 73.3614 86.6129 71.3197 86.6644ZM73.1601 72.3087C71.2437 72.3609 69.4069 73.0865 67.9722 74.3581C66.5374 75.6297 65.5964 77.366 65.3144 79.2623C65.1844 80.1316 65.2432 81.0187 65.4869 81.8632C65.7305 82.7077 66.1534 83.4898 66.7265 84.1563C67.3022 84.8002 68.0102 85.3122 68.8021 85.6571C69.594 86.002 70.451 86.1717 71.3146 86.1546C73.231 86.1024 75.0678 85.3768 76.5025 84.1052C77.9373 82.8337 78.8782 81.0973 79.1603 79.2011C79.291 78.3321 79.233 77.4452 78.9902 76.6007C78.7474 75.7562 78.3255 74.9739 77.7533 74.3071C77.1749 73.661 76.4635 73.1479 75.668 72.8029C74.8725 72.458 74.0117 72.2894 73.1448 72.3087H73.1601Z" fill="#D1D3D4"/>
<path d="M77.1262 76.9529C77.0738 77.0267 77.014 77.095 76.9478 77.1568C74.9086 78.9547 72.878 80.7526 70.8558 82.5504C70.6468 82.739 70.504 82.739 70.346 82.5504L67.7104 79.4152C67.5676 79.247 67.5982 79.0838 67.792 78.9309L68.6433 78.2427C68.8217 78.0999 68.9645 78.0999 69.097 78.2427C69.617 78.8544 70.1387 79.4645 70.6621 80.0728C70.8201 80.2665 70.9629 80.2665 71.1719 80.0728L75.9027 75.8925C76.1066 75.7141 76.2494 75.7141 76.4125 75.8925C76.5756 76.071 76.8254 76.3667 77.0294 76.6114C77.0762 76.6727 77.1156 76.7395 77.1466 76.8102L77.1262 76.9529Z" fill="white"/>
<path d="M129.783 76.0965H86.1444C85.9416 76.0965 85.7471 76.0159 85.6037 75.8725C85.4603 75.7291 85.3797 75.5346 85.3797 75.3318C85.3797 75.129 85.4603 74.9345 85.6037 74.7911C85.7471 74.6477 85.9416 74.5671 86.1444 74.5671H129.783C129.985 74.5671 130.18 74.6477 130.323 74.7911C130.467 74.9345 130.547 75.129 130.547 75.3318C130.547 75.5346 130.467 75.7291 130.323 75.8725C130.18 76.0159 129.985 76.0965 129.783 76.0965Z" fill="#D9D9D9"/>
<path d="M119.938 83.4527H85.2013C84.9985 83.4527 84.804 83.3722 84.6606 83.2288C84.5172 83.0854 84.4366 82.8909 84.4366 82.6881C84.4366 82.4852 84.5172 82.2908 84.6606 82.1473C84.804 82.0039 84.9985 81.9234 85.2013 81.9234H119.938C120.141 81.9234 120.336 82.0039 120.479 82.1473C120.623 82.2908 120.703 82.4852 120.703 82.6881C120.703 82.8909 120.623 83.0854 120.479 83.2288C120.336 83.3722 120.141 83.4527 119.938 83.4527Z" fill="#D9D9D9"/>
<path d="M127.259 102.998C127.206 102.998 127.155 102.982 127.111 102.952L123.135 100.184C123.1 100.16 123.071 100.127 123.053 100.088C123.034 100.05 123.025 100.008 123.028 99.9649C123.03 99.9228 123.042 99.8819 123.064 99.8456C123.085 99.8092 123.115 99.7785 123.15 99.7558L127.84 96.9877C127.869 96.9667 127.902 96.952 127.937 96.9446C127.972 96.9371 128.008 96.9371 128.043 96.9444C128.078 96.9518 128.111 96.9664 128.139 96.9873C128.168 97.0082 128.193 97.0349 128.21 97.0657C128.228 97.0965 128.24 97.1308 128.243 97.1663C128.247 97.2017 128.244 97.2376 128.233 97.2716C128.222 97.3055 128.204 97.3368 128.18 97.3634C128.157 97.3901 128.128 97.4114 128.095 97.4261L123.752 99.9751L127.402 102.524C127.446 102.555 127.479 102.599 127.497 102.65C127.514 102.701 127.515 102.756 127.5 102.808C127.484 102.86 127.452 102.905 127.409 102.937C127.365 102.969 127.313 102.987 127.259 102.988V102.998Z" fill="#D1D3D4"/>
<path d="M130.68 102.998C130.624 102.999 130.569 102.981 130.524 102.947C130.479 102.913 130.447 102.866 130.432 102.812C130.417 102.758 130.42 102.7 130.441 102.648C130.462 102.596 130.499 102.553 130.547 102.524L134.891 99.9751L131.241 97.4261C131.185 97.3869 131.147 97.3273 131.136 97.2604C131.125 97.1934 131.14 97.1247 131.179 97.0693C131.219 97.0138 131.278 96.9762 131.345 96.9648C131.412 96.9533 131.481 96.9689 131.536 97.0081L135.507 99.7762C135.542 99.8013 135.57 99.8342 135.59 99.8723C135.609 99.9104 135.62 99.9526 135.62 99.9954C135.617 100.038 135.604 100.079 135.582 100.116C135.56 100.152 135.529 100.183 135.492 100.204L130.807 102.973C130.768 102.993 130.724 103.002 130.68 102.998Z" fill="#D1D3D4"/>
<path d="M31.4541 57.6064C31.4541 57.6064 35.7567 65.1818 39.9268 65.865C45.0706 66.7112 52.6104 62.1741 52.6104 62.1741L48.3791 58.0193L39.7127 57.9887L34.9716 48.3027L31.4541 57.6064Z" fill="#2B6CB0"/>
<path d="M38.4943 107.005L38.8104 110.268L43.3628 109.916L42.9346 105.996L38.4943 107.005Z" fill="white"/>
<path d="M38.8104 110.523C38.7475 110.523 38.6869 110.499 38.6406 110.457C38.5943 110.414 38.5657 110.356 38.5606 110.293L38.2394 107.031C38.234 106.968 38.2512 106.907 38.2877 106.856C38.3242 106.805 38.3776 106.77 38.4382 106.755L42.8785 105.736C42.9135 105.728 42.9496 105.728 42.9847 105.735C43.0198 105.742 43.0531 105.756 43.0824 105.776C43.1119 105.798 43.1367 105.825 43.1551 105.857C43.1735 105.889 43.1852 105.924 43.1895 105.96L43.6177 109.875C43.6226 109.91 43.6202 109.945 43.6105 109.978C43.6009 110.012 43.5842 110.042 43.5616 110.069C43.5165 110.122 43.4524 110.155 43.3832 110.161L38.8308 110.512L38.8104 110.523ZM38.7696 107.204L39.0398 109.998L43.0824 109.681L42.7154 106.307L38.7696 107.204Z" fill="#2D3748"/>
<path d="M6.60179 99.7762L3.68069 102.101L5.33241 105.231L8.24841 103.941L6.60179 99.7762Z" fill="white"/>
<path d="M5.33241 105.486C5.28645 105.487 5.24119 105.475 5.20161 105.451C5.16203 105.428 5.12968 105.394 5.1081 105.353L3.45638 102.218C3.42717 102.166 3.41778 102.106 3.42997 102.048C3.44217 101.989 3.47511 101.938 3.52266 101.902L6.43866 99.5774C6.47016 99.5533 6.50652 99.5362 6.54523 99.5274C6.58395 99.5186 6.62411 99.5183 6.66297 99.5264C6.70169 99.5368 6.73749 99.5561 6.76756 99.5826C6.79763 99.6091 6.82115 99.6423 6.83629 99.6794L8.48802 103.849C8.51182 103.911 8.51078 103.98 8.4851 104.04C8.45942 104.101 8.41112 104.15 8.35038 104.176L5.43947 105.466C5.40558 105.48 5.36913 105.487 5.33241 105.486ZM4.02735 102.167L5.47515 104.905L7.94764 103.809L6.51513 100.189L4.02735 102.167Z" fill="#2D3748"/>
<path d="M15.3855 70.0758L15.6914 90.9314L5.49554 99.761L7.59588 104.956C7.59588 104.956 22.4206 97.8186 24.7299 94.607C27.0393 91.3953 27.386 83.6159 27.386 83.6159L34.9869 91.2627L37.9029 107.821L43.7043 107.505C43.7043 107.505 42.9652 95.3564 42.9652 90.8447C42.9652 86.3331 31.4745 70.815 31.4745 70.815L15.3855 70.0758Z" fill="#2D3748"/>
<path d="M37.9182 108.06C37.8585 108.061 37.8004 108.04 37.7546 108.002C37.7088 107.964 37.6782 107.91 37.6684 107.851L34.7626 91.3545L27.6256 84.1868C27.4981 86.0578 26.9424 91.9663 24.9594 94.7395C22.6347 97.9818 8.33508 104.879 7.72843 105.17C7.6962 105.184 7.66152 105.191 7.62647 105.191C7.59143 105.191 7.55675 105.184 7.52452 105.17C7.49194 105.158 7.46236 105.138 7.43774 105.114C7.41313 105.089 7.39405 105.06 7.38178 105.027L5.28654 99.8272C5.26687 99.7786 5.26268 99.7251 5.27454 99.674C5.2864 99.6229 5.31373 99.5767 5.35281 99.5417L15.4314 90.8447L15.1306 70.1013C15.1301 70.0671 15.1366 70.0332 15.1498 70.0016C15.1629 69.9701 15.1824 69.9415 15.2071 69.9178C15.231 69.8923 15.2604 69.8727 15.2931 69.8603C15.3258 69.8479 15.3609 69.8432 15.3957 69.8464L31.5 70.5703C31.538 70.5711 31.5752 70.5808 31.6089 70.5984C31.6425 70.6161 31.6715 70.6414 31.6937 70.6723C32.1678 71.3095 43.2354 86.3076 43.2354 90.8549C43.2354 95.3054 43.9644 107.377 43.9745 107.5C43.9774 107.567 43.954 107.633 43.9093 107.683C43.8646 107.733 43.8021 107.765 43.7349 107.77L37.9335 108.086L37.9182 108.06ZM27.4013 83.3661C27.4676 83.3667 27.5312 83.3922 27.5797 83.4375L35.1807 91.0843C35.217 91.1205 35.2418 91.1666 35.252 91.2169L38.1323 107.556L43.4495 107.265C43.3424 105.486 42.7256 94.9485 42.7256 90.8447C42.7256 86.6491 32.3309 72.3852 31.3572 71.0648L15.6455 70.3562L15.9463 90.9467C15.9459 90.9832 15.9381 91.0193 15.9232 91.0526C15.9082 91.0859 15.8866 91.1158 15.8596 91.1404L5.82182 99.8323L7.74373 104.609C9.68093 103.666 22.4512 97.37 24.5362 94.4591C26.7793 91.3341 27.1413 83.6822 27.1464 83.6057C27.1469 83.556 27.1629 83.5077 27.1922 83.4675C27.2214 83.4273 27.2624 83.3972 27.3095 83.3814C27.3389 83.3709 27.37 83.3657 27.4013 83.3661Z" fill="#2D3748"/>
<path d="M14.3404 72.1405L14.733 61.909C14.733 61.909 14.5596 49.2866 19.1936 47.0333C23.8276 44.78 33.1109 45.7486 34.9105 48.3027C36.71 50.8567 32.4431 72.1405 32.4431 72.1405H14.3404Z" fill="#2B6CB0"/>
<path d="M33.8399 37.49C33.7844 36.413 33.3237 35.3968 32.5501 34.6454C30.9137 33.1721 27.2534 32.6062 25.8872 34.783C25.4464 34.8197 25.0295 34.9986 24.6994 35.2928C24.2827 35.7024 23.9804 36.2138 23.8225 36.7763C23.068 38.9378 23.69 41.2319 24.526 43.322C24.7801 44.033 25.1834 44.6813 25.7087 45.2235C26.9883 46.4419 28.7675 45.7741 30.2 45.1624C31.1631 44.7803 32.0199 44.1717 32.698 43.3883C33.4932 42.4146 33.896 40.5946 33.9062 39.3559C33.921 38.7331 33.8989 38.1101 33.8399 37.49Z" fill="white"/>
<path d="M27.4777 46.131C27.1205 46.1407 26.7649 46.0795 26.4315 45.9509C26.0981 45.8222 25.7935 45.6287 25.5354 45.3816C24.9766 44.8179 24.55 44.137 24.2864 43.3883C23.5319 41.4919 22.7571 39.0092 23.5829 36.6642C23.7567 36.0626 24.0834 35.5164 24.5311 35.0787C24.8743 34.7925 25.2949 34.615 25.7393 34.5689C26.0203 34.1719 26.3833 33.84 26.8037 33.5955C27.2241 33.3509 27.6922 33.1996 28.1761 33.1517C28.9839 33.053 29.8034 33.1201 30.5844 33.3489C31.3654 33.5777 32.0915 33.9633 32.7184 34.4823C33.5449 35.2698 34.0376 36.3446 34.0948 37.4849C34.1521 38.1068 34.1742 38.7315 34.1611 39.3558C34.1611 40.6813 33.7125 42.5471 32.8968 43.5514C32.1941 44.3699 31.3014 45.0036 30.2969 45.3969C29.4143 45.8237 28.4564 46.0732 27.4777 46.131ZM28.8745 33.5901C28.6648 33.5881 28.4552 33.6018 28.2475 33.6309C27.8164 33.673 27.4002 33.8106 27.0289 34.0337C26.6577 34.2568 26.3408 34.5598 26.1013 34.9207C26.0797 34.9545 26.0505 34.9827 26.0159 35.0031C25.9814 35.0235 25.9425 35.0354 25.9025 35.0379C25.5259 35.0655 25.1683 35.2139 24.8829 35.461C24.5032 35.843 24.2261 36.3147 24.0774 36.8324C23.3178 39.0143 24.0774 41.3848 24.7758 43.1997C25.013 43.8803 25.3977 44.5 25.9025 45.0145C27.024 46.0851 28.5993 45.5243 30.1133 44.9024C31.0411 44.5398 31.8668 43.9572 32.5196 43.2048C33.2486 42.3024 33.6564 40.5335 33.6666 39.3253C33.68 38.7212 33.6578 38.1169 33.6003 37.5155C33.5551 36.5001 33.1227 35.5406 32.3921 34.834C31.3995 34.0238 30.1559 33.584 28.8745 33.5901Z" fill="#2D3748"/>
<path d="M30.4345 45.6518L30.1184 48.7411C30.1184 48.7411 29.3945 50.3877 27.4828 49.567C26.9353 49.3288 26.4644 48.9435 26.1224 48.454C25.7805 47.9645 25.5808 47.3898 25.5456 46.7937L26.1523 41.2574C26.1523 41.2574 27.7632 40.7476 27.8805 37.4441C27.8805 37.4441 29.7973 37.4441 32.8203 37.5869C32.8203 37.5869 33.2384 42.6848 32.7337 44.1836C32.229 45.6824 30.4345 45.6518 30.4345 45.6518Z" fill="white"/>
<path d="M28.4973 50.0615C28.1138 50.0537 27.7359 49.9687 27.3859 49.8117C26.7919 49.5563 26.2812 49.1397 25.9118 48.609C25.5424 48.0783 25.329 47.4548 25.2958 46.809L25.9025 41.2421C25.9084 41.1937 25.9278 41.148 25.9584 41.1102C25.9891 41.0723 26.0297 41.0438 26.0758 41.028C26.0758 41.028 27.5236 40.4774 27.6306 37.4594C27.6333 37.3936 27.6613 37.3314 27.7088 37.2858C27.7563 37.2401 27.8197 37.2147 27.8855 37.2147C27.8855 37.2147 29.8431 37.2147 32.8356 37.3575C32.8976 37.3585 32.957 37.3826 33.0022 37.425C33.0474 37.4674 33.0753 37.5251 33.0803 37.5869C33.0803 37.801 33.4932 42.7562 32.9784 44.2906C32.7977 44.7593 32.4827 45.1642 32.0727 45.4545C31.6628 45.7447 31.1762 45.9073 30.6741 45.922L30.3784 48.7921C30.3836 48.819 30.3836 48.8467 30.3784 48.8736C30.2042 49.2253 29.9365 49.5223 29.6047 49.7318C29.2729 49.9413 28.8897 50.0554 28.4973 50.0615ZM26.397 41.4409L25.7954 46.8192C25.8345 47.3619 26.0221 47.8834 26.3377 48.3267C26.6533 48.77 27.0847 49.1179 27.5848 49.3325C29.1141 49.9952 29.7616 48.8889 29.8737 48.6748L30.1847 45.6161C30.1921 45.5534 30.2221 45.4956 30.269 45.4534C30.3159 45.4112 30.3765 45.3875 30.4396 45.3867C30.5059 45.3867 32.0556 45.3867 32.4788 44.0918C32.9019 42.7969 32.647 38.8155 32.5756 37.8214C30.3172 37.7245 28.7012 37.699 28.1149 37.6888C27.9875 40.3754 26.8201 41.2013 26.3919 41.4307L26.397 41.4409Z" fill="#2D3748"/>
<path d="M27.335 41.3593C27.3143 41.0747 27.2015 40.8045 27.0138 40.5895C26.8309 40.3967 26.6151 40.2379 26.3766 40.1205C26.2544 40.0394 26.1145 39.9887 25.9687 39.9727C25.8663 39.9718 25.7644 39.989 25.668 40.0237C25.4361 40.0951 25.2362 40.2446 25.1021 40.4468C25.0155 40.6225 24.9734 40.8169 24.9797 41.0127C24.9688 41.2247 24.986 41.4373 25.0307 41.6448C25.0797 41.8498 25.1688 42.0431 25.2929 42.2135C25.4171 42.3839 25.5737 42.528 25.7538 42.6375C25.9339 42.747 26.134 42.8197 26.3424 42.8514C26.5508 42.8832 26.7634 42.8733 26.9679 42.8224" fill="white"/>
<path d="M26.5856 43.1283C26.2457 43.1287 25.9122 43.0352 25.6221 42.8581C25.1995 42.599 24.8969 42.1828 24.7809 41.7009C24.731 41.4716 24.7121 41.2367 24.7248 41.0025C24.7197 40.7651 24.774 40.5303 24.8829 40.3194C25.0501 40.072 25.2992 39.8915 25.5864 39.8096C25.7128 39.7597 25.8483 39.7371 25.984 39.7433C26.1657 39.7615 26.3404 39.8227 26.4938 39.9217C26.7583 40.0484 26.9983 40.221 27.2024 40.4315C27.4295 40.6876 27.5642 41.0125 27.5848 41.3542C27.589 41.421 27.5668 41.4868 27.5229 41.5374C27.479 41.5879 27.417 41.6192 27.3503 41.6244C27.2832 41.6274 27.2175 41.6049 27.1664 41.5614C27.1153 41.5179 27.0827 41.4566 27.075 41.3899C27.0586 41.1607 26.9693 40.9427 26.8201 40.768C26.653 40.5994 26.4603 40.4583 26.2491 40.3499C26.1598 40.2917 26.0589 40.2534 25.9534 40.2378C25.8836 40.2393 25.8146 40.2531 25.7495 40.2786C25.5753 40.3271 25.4237 40.4353 25.3213 40.5844C25.2568 40.7232 25.2254 40.875 25.2295 41.028C25.217 41.2176 25.2307 41.408 25.2703 41.5938C25.3574 41.943 25.5767 42.2446 25.8821 42.435C26.1887 42.6177 26.5549 42.6726 26.9016 42.5879C26.9693 42.571 27.0408 42.5817 27.1005 42.6175C27.1603 42.6534 27.2034 42.7115 27.2203 42.7791C27.2372 42.8467 27.2265 42.9182 27.1907 42.978C27.1548 43.0377 27.0967 43.0808 27.0291 43.0977C26.8829 43.1249 26.7341 43.1352 26.5856 43.1283Z" fill="#2D3748"/>
<path d="M30.2867 47.1352C29.6263 46.9542 29.0362 46.5774 28.5942 46.0545C28.4109 45.8596 28.282 45.62 28.2202 45.3597C28.1585 45.0994 28.1662 44.8274 28.2424 44.571C28.5067 44.9003 28.8399 45.1677 29.2186 45.3545C29.5973 45.5412 30.0124 45.6427 30.4345 45.6518L30.2867 47.1352Z" fill="#2D3748"/>
<path d="M30.2867 47.3901H30.2357C29.5228 47.1981 28.8847 46.7947 28.4055 46.2329C28.1886 46.0039 28.0368 45.7209 27.966 45.4135C27.8952 45.106 27.9079 44.7852 28.0028 44.4843C28.0178 44.442 28.0444 44.4048 28.0796 44.3768C28.1147 44.3489 28.157 44.3314 28.2016 44.3263C28.2466 44.3185 28.2929 44.3234 28.3353 44.3405C28.3776 44.3576 28.4143 44.3863 28.4412 44.4232C28.6844 44.7178 28.9874 44.9575 29.3301 45.1262C29.6729 45.295 30.0476 45.389 30.4294 45.402C30.5019 45.404 30.571 45.4331 30.6231 45.4835C30.6471 45.5104 30.6653 45.5419 30.6767 45.5761C30.6881 45.6103 30.6924 45.6465 30.6894 45.6824L30.5365 47.1658C30.5337 47.2007 30.5237 47.2346 30.507 47.2653C30.4903 47.2961 30.4673 47.323 30.4396 47.3443C30.3939 47.3735 30.3409 47.3894 30.2867 47.3901ZM28.4361 45.1369C28.4693 45.4171 28.5907 45.6796 28.7828 45.8863C29.1326 46.2845 29.5708 46.5952 30.0624 46.7937L30.1541 45.8965C29.5151 45.8328 28.9132 45.5667 28.4361 45.1369Z" fill="#2D3748"/>
<path d="M31.0972 42.9499C30.8521 42.9422 30.6103 42.8904 30.3835 42.7969C30.3207 42.7712 30.2706 42.7216 30.2443 42.659C30.218 42.5964 30.2176 42.5259 30.2433 42.463C30.269 42.4002 30.3186 42.3501 30.3813 42.3238C30.4439 42.2975 30.5144 42.2971 30.5772 42.3228C30.7861 42.4179 31.0178 42.4515 31.2451 42.4197C31.1401 41.8395 30.9422 41.28 30.6588 40.7629C30.6291 40.702 30.6247 40.6319 30.6467 40.5678C30.6687 40.5038 30.7152 40.4511 30.7761 40.4213C30.8369 40.3916 30.9071 40.3872 30.9711 40.4092C31.0352 40.4312 31.0879 40.4777 31.1176 40.5386C32.0454 42.4248 31.7141 42.7001 31.6274 42.7918C31.4766 42.9088 31.2875 42.9652 31.0972 42.9499Z" fill="#2D3748"/>
<path d="M30.3274 43.9847C30.0103 43.9927 29.6985 43.9019 29.4353 43.7248C29.2905 43.6141 29.1703 43.4744 29.0825 43.3146C28.9947 43.1549 28.9413 42.9785 28.9255 42.7969C28.9205 42.7637 28.9223 42.7298 28.9307 42.6973C28.939 42.6647 28.9539 42.6342 28.9744 42.6076C28.9949 42.5809 29.0205 42.5587 29.0498 42.5421C29.079 42.5256 29.1113 42.5152 29.1447 42.5115C29.2109 42.5027 29.2778 42.5202 29.3312 42.5602C29.3846 42.6003 29.4201 42.6596 29.4302 42.7256C29.4371 42.8398 29.4684 42.9513 29.5221 43.0524C29.5757 43.1536 29.6504 43.242 29.7412 43.3118C29.9737 43.4517 30.2478 43.5058 30.5161 43.4648C30.5821 43.4542 30.6497 43.4695 30.7048 43.5075C30.7598 43.5454 30.7982 43.6032 30.8117 43.6687C30.8237 43.7349 30.8089 43.8031 30.7707 43.8585C30.7325 43.9139 30.674 43.952 30.6078 43.9644C30.5154 43.9812 30.4214 43.988 30.3274 43.9847Z" fill="#2D3748"/>
<path d="M29.9655 40.0645C29.9297 40.0641 29.8944 40.0561 29.862 40.0412C29.8295 40.0263 29.8005 40.0047 29.7769 39.9778C29.7339 39.9243 29.6807 39.88 29.6202 39.8476C29.5598 39.8152 29.4934 39.7953 29.4251 39.7892C29.2372 39.8026 29.0586 39.8759 28.9153 39.9982C28.891 40.023 28.8618 40.0426 28.8297 40.0557C28.7975 40.0688 28.763 40.0752 28.7283 40.0745C28.6935 40.0738 28.6593 40.066 28.6277 40.0516C28.5961 40.0372 28.5677 40.0165 28.5444 39.9908C28.5211 39.965 28.5033 39.9348 28.4921 39.9019C28.4809 39.869 28.4765 39.8341 28.4793 39.7995C28.482 39.7649 28.4918 39.7312 28.5081 39.7005C28.5243 39.6698 28.5467 39.6427 28.5738 39.6209C28.8204 39.4002 29.14 39.2786 29.471 39.2794C29.6073 39.2891 29.7403 39.3262 29.8621 39.3884C29.9838 39.4506 30.0918 39.5366 30.1796 39.6413C30.2234 39.6931 30.2452 39.7599 30.2404 39.8275C30.2357 39.8951 30.2047 39.9582 30.1541 40.0033C30.1283 40.0256 30.0984 40.0425 30.066 40.053C30.0336 40.0635 29.9994 40.0674 29.9655 40.0645Z" fill="#2D3748"/>
<path d="M31.5 40.3754C31.4629 40.3825 31.4249 40.3825 31.3878 40.3754C31.3576 40.3607 31.3307 40.3403 31.3084 40.3151C31.2862 40.29 31.2691 40.2607 31.2583 40.229C31.2474 40.1973 31.2428 40.1637 31.245 40.1302C31.2471 40.0967 31.2558 40.064 31.2706 40.0339C31.3253 39.9221 31.4047 39.8241 31.5027 39.7473C31.6007 39.6705 31.7148 39.6168 31.8364 39.5904C31.9934 39.5814 32.1502 39.6117 32.2926 39.6785C32.4349 39.7452 32.5585 39.8463 32.6521 39.9727C32.676 39.9964 32.6949 40.0246 32.7079 40.0556C32.7208 40.0867 32.7275 40.12 32.7275 40.1537C32.7275 40.1873 32.7208 40.2206 32.7079 40.2517C32.6949 40.2828 32.676 40.3109 32.6521 40.3346C32.6044 40.3813 32.5404 40.4075 32.4737 40.4075C32.4069 40.4075 32.3429 40.3813 32.2952 40.3346C32.1474 40.1766 32.0199 40.095 31.9282 40.1103C31.8364 40.1256 31.7549 40.248 31.7447 40.2735C31.7164 40.3104 31.6789 40.3393 31.636 40.3572C31.593 40.3751 31.5461 40.3814 31.5 40.3754Z" fill="#2D3748"/>
<path d="M28.3698 49.9289L26.6671 50.7701L27.6612 52.1261L24.7095 64.7281L27.5083 67.9143L29.9655 63.5913L28.5483 52.1414L29.6749 50.9179L28.3698 49.9289Z" fill="white"/>
<path d="M3.68069 102.101L0.254898 104.426C0.254898 104.426 6.06651 114.295 7.68255 111.746C8.12097 111.043 5.33241 105.226 5.33241 105.226L3.68069 102.101Z" fill="#2D3748"/>
<path d="M6.97904 112.429C4.74106 112.399 0.525089 105.358 0.0509841 104.558C0.0177186 104.502 0.00710765 104.436 0.0213255 104.372C0.0355433 104.309 0.0735119 104.253 0.127451 104.217L3.51756 101.892C3.54691 101.871 3.58018 101.857 3.61526 101.85C3.65035 101.843 3.68651 101.843 3.72148 101.851C3.75627 101.861 3.78869 101.878 3.81674 101.901C3.8448 101.923 3.86789 101.952 3.88461 101.984L5.55672 105.119C6.41317 106.913 8.35547 111.145 7.89157 111.889C7.80109 112.052 7.66889 112.188 7.50852 112.283C7.34816 112.378 7.16541 112.428 6.97904 112.429ZM0.59646 104.502C1.94231 106.745 5.3681 111.899 6.96884 111.919C7.07314 111.917 7.17511 111.888 7.26456 111.835C7.35402 111.781 7.42783 111.705 7.47863 111.614C7.66216 111.175 6.39788 108.014 5.11321 105.343L3.58383 102.473L0.59646 104.502Z" fill="#2D3748"/>
<path d="M38.7696 110.268C38.7696 110.268 38.6625 114.076 39.0092 114.137C39.3558 114.198 50.1685 112.74 49.3477 111.914C48.527 111.088 43.3628 109.916 43.3628 109.916L38.7696 110.268Z" fill="#2D3748"/>
<path d="M38.9684 114.392C38.7594 114.351 38.4076 114.29 38.5198 110.263C38.5221 110.2 38.5472 110.141 38.5905 110.096C38.6337 110.051 38.692 110.023 38.7543 110.018L43.3424 109.661H43.4189C43.9542 109.783 48.6799 110.874 49.5364 111.726C49.5958 111.783 49.6349 111.859 49.6478 111.941C49.6606 112.022 49.6466 112.106 49.6077 112.179C49.0266 113.275 39.2029 114.392 38.9684 114.392ZM39.0194 110.507C38.9631 111.635 39.004 112.766 39.1417 113.887C40.3397 113.857 48.0733 112.648 49.0725 112.011C48.3078 111.445 45.3 110.619 43.3475 110.171L39.0194 110.507Z" fill="#2D3748"/>
<path d="M32.7541 70.917H32.7184C32.6843 70.9132 32.6514 70.9027 32.6215 70.8859C32.5916 70.8691 32.5654 70.8465 32.5445 70.8194C32.5235 70.7922 32.5083 70.7612 32.4996 70.728C32.4909 70.6949 32.4891 70.6603 32.4941 70.6264C32.8917 67.5167 34.8289 55.5672 34.8493 55.4499C34.8507 55.4132 34.8599 55.3772 34.8763 55.3443C34.8927 55.3114 34.9159 55.2823 34.9443 55.259C34.9727 55.2357 35.0058 55.2187 35.0413 55.2091C35.0768 55.1995 35.1139 55.1976 35.1502 55.2034C35.1865 55.2092 35.2211 55.2226 35.2518 55.2428C35.2826 55.263 35.3087 55.2895 35.3284 55.3205C35.3481 55.3515 35.3611 55.3863 35.3664 55.4227C35.3717 55.4591 35.3692 55.4962 35.3591 55.5315C35.3591 55.6539 33.4066 67.5932 33.009 70.6927C33.0004 70.7544 32.97 70.811 32.9232 70.8522C32.8764 70.8934 32.8164 70.9164 32.7541 70.917Z" fill="#2D3748"/>
<path d="M53.7676 67.0069C62.0677 67.0069 68.7962 60.2783 68.7962 51.9783C68.7962 43.6782 62.0677 36.9496 53.7676 36.9496C45.4675 36.9496 38.739 43.6782 38.739 51.9783C38.739 60.2783 45.4675 67.0069 53.7676 67.0069Z" fill="#2D3748"/>
<path d="M53.7574 67.2669C50.7706 67.2668 47.8493 66.3921 45.3538 64.7508C42.8584 63.1095 40.8982 60.7735 39.7152 58.031C38.5321 55.2885 38.178 52.2596 38.6965 49.3182C39.215 46.3767 40.5834 43.6515 42.6329 41.4788C44.6824 39.3062 47.3233 37.7812 50.2295 37.0921C53.1357 36.403 56.18 36.5799 58.9868 37.6011C61.7936 38.6223 64.24 40.4429 66.024 42.8384C67.8079 45.2339 68.8514 48.0993 69.0257 51.081C69.2597 55.1271 67.8782 59.1006 65.1845 62.1288C62.4909 65.1569 58.7055 66.9921 54.6598 67.2312C54.3607 67.255 54.0599 67.2669 53.7574 67.2669ZM53.788 37.1892C53.4974 37.1892 53.2018 37.1892 52.9061 37.1892C49.9861 37.3577 47.1816 38.3886 44.8476 40.1514C42.5136 41.9142 40.755 44.3297 39.7942 47.0922C38.8334 49.8548 38.7136 52.8403 39.4501 55.671C40.1865 58.5016 41.746 61.0502 43.9313 62.9943C46.1166 64.9384 48.8295 66.1905 51.7266 66.5924C54.6238 66.9942 57.575 66.5276 60.2069 65.2517C62.8388 63.9758 65.0331 61.9478 66.5122 59.4245C67.9912 56.9011 68.6885 53.9957 68.5159 51.0759C68.2939 47.3177 66.6465 43.7857 63.9096 41.2005C61.1728 38.6152 57.5528 37.1715 53.788 37.1638V37.1892Z" fill="#2D3748"/>
<path d="M51.4481 67.1445C59.7482 67.1445 66.4767 60.416 66.4767 52.1159C66.4767 43.8158 59.7482 37.0873 51.4481 37.0873C43.148 37.0873 36.4194 43.8158 36.4194 52.1159C36.4194 60.416 43.148 67.1445 51.4481 67.1445Z" fill="#2B6CB0"/>
<path d="M51.4379 67.3943C47.4298 67.2745 43.6298 65.5827 40.8586 62.6845C38.0875 59.7863 36.5677 55.9142 36.6276 51.9048C36.6875 47.8953 38.3223 44.0704 41.1788 41.2563C44.0354 38.4421 47.8843 36.8647 51.8942 36.8647C55.904 36.8647 59.7529 38.4421 62.6094 41.2563C65.466 44.0704 67.1008 47.8953 67.1607 51.9048C67.2206 55.9142 65.7008 59.7863 62.9297 62.6845C60.1586 65.5827 56.3585 67.2745 52.3504 67.3943C52.0343 67.3943 51.7285 67.3943 51.4379 67.3943ZM51.4685 37.3167C51.1779 37.3167 50.8873 37.3167 50.5967 37.3167C46.7152 37.4312 43.0346 39.0682 40.3502 41.8741C37.6657 44.68 36.193 48.4294 36.2503 52.3121C36.3075 56.1949 37.8901 59.8993 40.6561 62.6248C43.4221 65.3503 47.1494 66.8781 51.0326 66.8781C54.9158 66.8781 58.6431 65.3503 61.4091 62.6248C64.1751 59.8993 65.7577 56.1949 65.8149 52.3121C65.8722 48.4294 64.3995 44.68 61.715 41.8741C59.0306 39.0682 55.35 37.4312 51.4685 37.3167Z" fill="#2D3748"/>
<path d="M60.92 47.0537C60.8224 47.2123 60.7116 47.3624 60.5886 47.5023L48.9246 59.151C48.8659 59.2448 48.7844 59.3221 48.6876 59.3757C48.5909 59.4292 48.4821 59.4574 48.3715 59.4574C48.2609 59.4574 48.1521 59.4292 48.0553 59.3757C47.9586 59.3221 47.877 59.2448 47.8184 59.151C45.6263 56.8909 43.4393 54.6326 41.2574 52.3759C41.1744 52.3141 41.1077 52.233 41.063 52.1397C41.0184 52.0463 40.9972 51.9435 41.0012 51.8401C41.0052 51.7367 41.0343 51.6358 41.0861 51.5462C41.1378 51.4566 41.2106 51.3809 41.2981 51.3257L42.9448 49.8422C43.004 49.7679 43.0792 49.7079 43.1648 49.6666C43.2504 49.6253 43.3442 49.6039 43.4393 49.6039C43.5343 49.6039 43.6281 49.6253 43.7137 49.6666C43.7994 49.7079 43.8746 49.7679 43.9338 49.8422C45.2218 51.1643 46.515 52.483 47.8133 53.7982C48.216 54.206 48.5168 54.2111 48.9195 53.7982L57.9887 44.7749C58.0477 44.6855 58.1279 44.6122 58.2222 44.5614C58.3165 44.5107 58.422 44.4841 58.5291 44.4841C58.6362 44.4841 58.7416 44.5107 58.8359 44.5614C58.9302 44.6122 59.0105 44.6855 59.0694 44.7749L60.5988 46.3043C60.7139 46.4414 60.8195 46.5862 60.9149 46.7376L60.92 47.0537Z" fill="white"/>
<path d="M36.9343 60.6192C36.9343 60.6192 39.9931 60.2318 40.4621 59.9157C40.9311 59.5996 42.2209 57.5299 42.8887 57.3668C43.5565 57.2036 43.4342 58.7381 42.8887 59.3651C42.3432 59.9922 45.4733 57.7083 45.9831 58.2181C46.3225 58.6625 46.5064 59.2061 46.5064 59.7653C46.5064 60.3245 46.3225 60.8682 45.9831 61.3125C45.1216 62.3678 39.9523 64.4121 37.2504 64.5446" fill="white"/>
<path d="M37.2504 64.774C37.185 64.7754 37.1217 64.7511 37.074 64.7063C37.0264 64.6615 36.9982 64.5998 36.9955 64.5344C36.9934 64.5009 36.998 64.4674 37.0089 64.4356C37.0199 64.4039 37.037 64.3747 37.0592 64.3496C37.0815 64.3245 37.1085 64.304 37.1387 64.2894C37.1688 64.2747 37.2016 64.2662 37.2351 64.2642C39.7841 64.1368 44.9686 62.1282 45.7843 61.1239C46.0817 60.7276 46.2425 60.2455 46.2425 59.75C46.2425 59.2546 46.0817 58.7724 45.7843 58.3761C45.509 58.2589 44.102 59.0695 43.6381 59.3396C42.9244 59.7475 42.7765 59.8494 42.6185 59.6353C42.4605 59.4212 42.542 59.3651 42.6848 59.202C42.8542 58.9849 42.9717 58.7319 43.0282 58.4624C43.0848 58.1929 43.0789 57.914 43.011 57.6471C43.011 57.6166 42.9805 57.6064 42.9346 57.6471C42.6185 57.7185 41.915 58.5801 41.4868 59.1459C41.2325 59.5227 40.9309 59.8654 40.5895 60.1655C40.0797 60.4918 37.4798 60.8435 36.9598 60.9098C36.8929 60.9185 36.8253 60.9003 36.7718 60.8592C36.7183 60.8181 36.6832 60.7575 36.6743 60.6906C36.6693 60.6574 36.6711 60.6235 36.6795 60.5909C36.6879 60.5584 36.7028 60.5279 36.7232 60.5012C36.7437 60.4746 36.7693 60.4523 36.7986 60.4358C36.8279 60.4193 36.8602 60.4088 36.8936 60.4051C38.1374 60.2471 40.0186 59.931 40.3092 59.7424C40.595 59.4649 40.8559 59.163 41.0891 58.8401C41.813 57.9224 42.3636 57.2648 42.8173 57.1577C42.9372 57.1249 43.0645 57.1332 43.1791 57.1812C43.2937 57.2293 43.3889 57.3143 43.4495 57.4228C43.6416 57.8969 43.6416 58.4272 43.4495 58.9012C44.7341 58.162 45.7486 57.6369 46.1615 58.0499C46.5406 58.5414 46.7462 59.1446 46.7462 59.7653C46.7462 60.386 46.5406 60.9893 46.1615 61.4808C45.2541 62.5972 40.0441 64.6721 37.2453 64.8097L37.2504 64.774Z" fill="#2D3748"/>
<path d="M20.254 46.9568C20.254 46.9568 21.5539 60.0279 25.3519 60.089C29.9757 60.1706 37.8774 59.9973 37.8774 59.9973L39.4068 64.927C39.4068 64.927 27.1718 67.8633 22.023 65.6356C16.8741 63.4078 16.5019 54.5935 16.5019 54.5935L20.254 46.9568Z" fill="#2B6CB0"/>
<path d="M29.0989 60.4969C27.0087 60.4969 25.2448 60.4255 24.7503 60.2114C23.3994 59.6149 20.9167 51.0352 20.4324 49.3376C20.4232 49.3044 20.4206 49.2698 20.4248 49.2356C20.429 49.2015 20.44 49.1685 20.4571 49.1386C20.4742 49.1088 20.497 49.0826 20.5243 49.0616C20.5515 49.0406 20.5827 49.0252 20.6159 49.0164C20.6487 49.0063 20.6832 49.003 20.7173 49.0066C20.7515 49.0102 20.7845 49.0206 20.8145 49.0372C20.8445 49.0539 20.8708 49.0765 20.8919 49.1035C20.9129 49.1306 20.9283 49.1617 20.9371 49.1948C22.0332 53.0641 24.0927 59.3447 24.9645 59.7271C25.8362 60.1094 33.1823 59.9514 37.8622 59.7271C37.8969 59.7243 37.9318 59.7287 37.9648 59.7399C37.9978 59.7511 38.0281 59.769 38.0539 59.7924C38.0797 59.8158 38.1004 59.8443 38.1148 59.876C38.1291 59.9077 38.1369 59.9421 38.1374 59.9769C38.1395 60.0114 38.1346 60.0461 38.1231 60.0787C38.1116 60.1114 38.0937 60.1414 38.0705 60.1671C38.0472 60.1927 38.019 60.2135 37.9876 60.2281C37.9562 60.2427 37.9222 60.2509 37.8876 60.2522C37.1281 60.293 32.647 60.4969 29.0989 60.4969Z" fill="#2D3748"/>
<path d="M27.5083 66.6347C25.6098 66.7022 23.7137 66.4471 21.9006 65.8803C17.0525 64.0399 16.2623 57.1679 16.2623 56.8723C16.2552 56.804 16.2753 56.7357 16.3182 56.6823C16.3612 56.6288 16.4236 56.5945 16.4917 56.5868C16.5605 56.5796 16.6294 56.5995 16.6837 56.6424C16.738 56.6852 16.7734 56.7476 16.7823 56.8162C16.7823 56.8876 17.5674 63.6627 22.1351 65.3858C26.7895 67.1394 37.3167 65.1054 37.4288 65.085C37.4901 65.085 37.5495 65.1062 37.5969 65.1451C37.6443 65.1839 37.6768 65.238 37.6888 65.2981C37.7008 65.3582 37.6916 65.4206 37.6628 65.4747C37.634 65.5288 37.5874 65.5712 37.5308 65.5948C34.225 66.2217 30.8724 66.5695 27.5083 66.6347Z" fill="#2D3748"/>
</svg>
